<?xml version="1.0" encoding="utf-8"?>
<!-- Generator: Adobe Illustrator 27.5.0, SVG Export Plug-In . SVG Version: 6.00 Build 0)  -->
<svg version="1.1" xmlns="http://www.w3.org/2000/svg" xmlns:xlink="http://www.w3.org/1999/xlink" x="0px" y="0px"
	 viewBox="0 0 500 500" style="enable-background:new 0 0 500 500;" xml:space="preserve">
<g id="BACKGROUND">
	<rect style="fill:#FFFFFF;" width="500" height="500"/>
	<g style="opacity:0.7;">
		<defs>
			<rect id="SVGID_1_" style="opacity:0.7;" width="500" height="500"/>
		</defs>
		<clipPath id="SVGID_00000057832010773466873490000007661349866043327674_">
			<use xlink:href="#SVGID_1_"  style="overflow:visible;"/>
		</clipPath>
	</g>
	<g style="opacity:0.4;">
		
			<ellipse transform="matrix(0.7071 -0.7071 0.7071 0.7071 -99.2696 247.9485)" style="fill:#AFD9D7;" cx="249.665" cy="243.803" rx="206.693" ry="206.693"/>
		<g>
			<path style="fill:#AFD9D7;" d="M56.375,146.893c-6.775,11.625-9.184,25.059-10.498,38.288c-0.102,1.035-0.184,2.072-0.256,3.109
				c0.698-1.974,1.42-3.94,2.137-5.908c4.647-13.244,8.66-23.586,14.021-35.568c3.571-8.482,5.102-13.917,10.136-21.834
				C65.096,130.92,60.633,139.035,56.375,146.893z"/>
			<path style="fill:#AFD9D7;" d="M36.874,188.963c1.884-5.799,3.76-11.616,5.199-17.543c1.222-5.125,2.283-10.32,4.263-15.222
				C39.004,165.357,37.112,177.54,36.874,188.963z"/>
			<path style="fill:#AFD9D7;" d="M37.431,203.314c-0.023,0.956-0.103,1.268,0.272,0.111c1.9-5.112,2.747-10.497,3.756-15.831
				C38.672,192.353,37.607,197.854,37.431,203.314z"/>
			<path style="fill:#AFD9D7;" d="M39.977,211.207c1.223-3.361,1.839-6.89,2.11-10.448C40.589,204.031,39.954,207.62,39.977,211.207
				z"/>
			<path style="fill:#AFD9D7;" d="M34.718,209.353c-1.897,5.627-1.686,11.697-0.651,17.476
				C35.057,221.128,34.861,215.182,34.718,209.353z"/>
			<path style="fill:#AFD9D7;" d="M40.515,274.181c-0.707-5.33-1.63-12.177-2.214-15.88c-0.842-6.007-2.079-11.991-1.723-18.092
				c-4.22,12.166-1.053,25.436,3.812,36.928c0.207,0.504,0.42,1.006,0.632,1.507C40.868,277.155,40.696,275.668,40.515,274.181z"/>
			<path style="fill:#AFD9D7;" d="M179.104,42.979c4.137-1.697,8.56-2.603,12.846-3.852c5.75-1.67,11.495-3.361,17.243-5.04
				C198.589,33.747,187.533,36.306,179.104,42.979z"/>
			<path style="fill:#AFD9D7;" d="M447.022,157.445c-3.79-7.006-7.919-14.092-13.945-19.422c5.126,8.26,6.787,14.324,10.553,23.425
				c4.036,10.406,8.588,20.354,11.968,32.452c0.609,1.937,1.188,4.153,1.654,5.982c0.033-1.041,0.059-2.083,0.043-3.125
				C457.155,183.029,453.538,169.515,447.022,157.445z"/>
			<path style="fill:#AFD9D7;" d="M461.19,175.013c1.507,9.598,2.789,19.163,5.088,29.926
				C467.561,194.717,466.045,184.16,461.19,175.013z"/>
			<path style="fill:#AFD9D7;" d="M461.616,196.002c0.028,5.597,0.621,10.288,1.833,15.71
				C464.11,206.395,463.449,201.031,461.616,196.002z"/>
			<path style="fill:#AFD9D7;" d="M457.197,205.114c0.679,4.023,0.775,7.428,2.105,11.711
				C459.481,212.846,459.195,208.649,457.197,205.114z"/>
			<path style="fill:#AFD9D7;" d="M460.334,223.936c0.355,5.301,0.367,10.622,1.106,15.894
				C462.569,234.562,462.542,228.929,460.334,223.936z"/>
			<path style="fill:#AFD9D7;" d="M409.459,106.673c-0.907-0.79,1.279,1.91,1.539,2.381c1.918,2.797,4.774,6.695,6.172,8.462
				c3.776,4.978,8.191,9.477,12.044,14.36C425.299,121.76,417.989,113.241,409.459,106.673z"/>
			<path style="fill:#AFD9D7;" d="M431.57,123.748c2.225,4.349,5.111,8.346,8.03,12.204
				C438.138,131.201,435.199,127.097,431.57,123.748z"/>
			<path style="fill:#AFD9D7;" d="M447.161,319.037c-2.559,5.585-6.309,14.033-7.735,17.898c-0.92,2.161-1.453,3.517-2.164,5.127
				c-0.9,1.788-1.429,3.998-2.958,5.347c0.512-0.055,0.856-0.515,1.249-0.806c1.73-1.621,3.062-3.623,4.412-5.56
				c5.188-7.706,8.364-16.748,9.376-25.97c0.065-0.575,0.124-1.151,0.177-1.726C448.638,315.479,447.991,317.044,447.161,319.037z"
				/>
			<path style="fill:#AFD9D7;" d="M400.962,391.448c-1.142,1.483-2.059,3.219-3.495,4.439c4.413-2.202,7.014-6.893,8.874-11.281
				C404.189,387.103,402.696,389.018,400.962,391.448z"/>
		</g>
	</g>
</g>
<g id="OBJECTS">
	<g>
		<g>
			<path style="fill:#52AEA9;" d="M280.752,380.101c12.228-5.368,26.16-0.158,39.325,2.088c19.345,3.3,39.787-0.242,56.893-9.858
				c1.217-0.684,2.58-1.687,2.483-3.079c-0.073-1.048-0.965-1.826-1.797-2.467c-12.892-9.926-28.316-16.931-44.527-18.324
				c-16.211-1.393-33.178,3.173-45.439,13.869c-2.678,2.337-5.17,5.016-6.569,8.284C279.723,373.88,279.561,377.831,280.752,380.101
				z"/>
			<path style="fill:#AFD9D7;" d="M368.602,368.265c-17.168-2.113-34.412-3.031-51.686-3.575
				c-10.237-0.23-21.788,0.202-29.989,7.124c9.048-5.327,19.757-4.949,29.885-4.426C334.056,368.309,351.326,368.9,368.602,368.265
				L368.602,368.265z"/>
			<g style="opacity:0.4;">
				<path style="fill:#52AEA9;" d="M339.29,372.823c5.186,0.928,10.475,0.379,15.481-1.187
					C349.585,370.88,344.284,371.185,339.29,372.823z"/>
				<path style="fill:#52AEA9;" d="M341.482,377.499c4.518,0.482,9.056-0.301,13.232-2.061
					C350.207,375.123,345.674,375.807,341.482,377.499z"/>
				<path style="fill:#52AEA9;" d="M343.382,361.277c7.309,2.494,15.096,3.179,22.748,2.233
					C358.815,361.05,351.033,360.435,343.382,361.277z"/>
			</g>
		</g>
		<g>
			<path style="fill:#F2B8BF;" d="M325.094,315.381c3.958-6.058,10.512-9.86,17.072-12.886s13.461-5.554,19.178-9.974
				c7.003-5.413,11.834-13.577,13.228-22.353c1.304-8.207-0.301-16.622,0.328-24.912c1.33-17.518,12.463-33.129,13.602-50.661
				c0.172-2.651,0.094-5.401-0.977-7.837c-1.07-2.435-3.321-4.499-5.962-4.676c-3.934-0.264-6.92,3.456-8.599,7.03
				c-6.551,13.947-4.587,31.188-12.827,44.196c-4.547,7.179-11.691,12.2-18.323,17.493c-6.632,5.293-13.184,11.441-15.695,19.574
				c-2.258,7.312-0.938,15.19-0.296,22.831c0.642,7.641,0.37,15.992-4.362,21.986C322.901,315.168,324.341,315.142,325.094,315.381z
				"/>
			<path style="fill:#3B7E7A;" d="M352.205,282.068c-8.194,14.044-19.369,26.032-31.007,37.248
				c-2.452,1.741-4.977,3.378-7.559,4.919c-3.357,2.004-6.802,3.848-10.3,5.589c0.233-0.408,0.488-0.805,0.793-1.173
				c0.525-0.636,1.113-1.226,1.719-1.801c16.409-11.942,30.066-27.772,42.934-44.988c4.403-6.148,8.51-12.534,12.058-19.224
				C358.602,269.375,355.726,275.91,352.205,282.068z"/>
			<g style="opacity:0.4;">
				<path style="fill:#F2B8BF;" d="M354.226,259.346c-1.603,3.576-3.037,7.235-4.047,11.025c0.891-1.174,1.765-2.362,2.614-3.567
					c5.033-6.614,8.835-14.303,10.025-22.584C359.961,249.266,356.612,254.045,354.226,259.346z"/>
				<path style="fill:#F2B8BF;" d="M345.033,265.027c3.302-3.644,5.465-8.035,7.117-12.623
					C348.638,255.827,346.389,260.356,345.033,265.027z"/>
				<path style="fill:#F2B8BF;" d="M354.907,251.087c1.056-1.332,1.822-2.872,2.211-4.528
					C356.052,247.884,355.309,249.436,354.907,251.087z"/>
				<path style="fill:#F2B8BF;" d="M373.711,205.94c-1.315,3.949-2.723,7.98-2.844,12.178c1.434-4.246,3.748-8.126,5.318-12.322
					c1.784-4.421,2.777-9.103,4.316-13.601C377.588,196.4,375.534,201.178,373.711,205.94z"/>
				<path style="fill:#F2B8BF;" d="M372.578,226.603c2.134-3.723,3.736-7.72,4.708-11.902
					C374.651,218.153,373.018,222.282,372.578,226.603z"/>
			</g>
		</g>
		<g>
			<path style="fill:#5480AF;" d="M317.032,349.224c15.289-8.686,20.752-27.496,28.739-43.162
				c11.738-23.02,31.563-41.816,55.176-52.31c1.679-0.746,3.811-1.396,5.205-0.199c1.049,0.901,1.169,2.456,1.19,3.839
				c0.335,21.422-4.405,43.219-15.691,61.43c-11.285,18.211-29.457,32.533-50.397,37.061c-4.575,0.989-9.364,1.512-13.915,0.417
				C322.79,355.206,318.492,352.267,317.032,349.224z"/>
			<path style="fill:#3C678E;" d="M398.655,265.787c-11.278,19.788-23.879,38.717-36.896,57.383
				c-7.813,10.989-17.357,22.844-31.119,26.056c12.743-5.361,20.772-16.964,28.189-28.07
				C371.426,302.226,384.391,283.527,398.655,265.787L398.655,265.787z"/>
			<g style="opacity:0.2;">
				<path style="fill:#5480AF;" d="M356.169,315.72c2.01-6.212,4.724-11.373,7.685-18.078c2.18-5.163,3.863-10.521,5.54-15.863
					C362.008,291.497,355.045,303.052,356.169,315.72z"/>
				<path style="fill:#5480AF;" d="M348.584,319.946c2.445-4.271,3.951-9.012,4.443-13.908
					C350.296,310.185,348.838,314.999,348.584,319.946z"/>
				<path style="fill:#5480AF;" d="M351.02,324.416c1.286-2.482,2.053-5.204,2.153-8.003
					C351.726,318.835,351.033,321.603,351.02,324.416z"/>
				<path style="fill:#5480AF;" d="M343.23,331.652c0.995-1.672,1.578-3.538,1.905-5.448
					C343.96,327.783,343.366,329.702,343.23,331.652z"/>
				<path style="fill:#5480AF;" d="M374.495,314.73c-3.101,3.261-6.008,6.751-8.305,10.632c1.342-1.083,2.577-1.991,3.998-3.127
					c7.38-5.274,15.735-13.638,19.811-22.774C385.108,304.825,379.219,309.199,374.495,314.73z"/>
				<path style="fill:#5480AF;" d="M379.403,302.938c2.279-1.685,4.285-3.739,5.628-6.254
					C382.672,298.284,380.839,300.495,379.403,302.938z"/>
				<path style="fill:#5480AF;" d="M380.315,320.047c2.831-1.618,5.215-3.915,6.908-6.703
					C384.539,315.149,382.165,317.387,380.315,320.047z"/>
			</g>
		</g>
		<g>
			<path style="fill:#A0D8BF;" d="M208.518,352.191c2.865-7.002-0.032-15.506-3.382-23.026c-3.351-7.521-7.275-15.398-6.429-23.092
				c0.502-4.563,2.656-8.592,4.612-12.614c2.986-6.142,5.615-12.664,5.726-19.744c0.111-7.08-2.694-14.872-8.722-19.639
				c-5.633-4.455-12.937-5.58-19.69-7.638c-6.753-2.057-14.121-6.146-15.982-12.742c-1.956-6.932,3.08-13.122,3.177-20.077
				c0.068-4.893-2.516-10.054-6.681-13.347c-4.166-3.293-9.795-4.623-14.557-3.44c-2.521,0.626-4.81,1.906-7.453,2.109
				c-4.549,0.349-9.152-2.594-12.421-6.138c-3.269-3.544-5.633-7.743-8.731-11.422c-3.857-4.581-8.992-8.373-14.697-9.892
				c-5.705-1.518-11.957-0.509-15.737,3.263c-3.631,3.623-4.605,9.382-3.281,14.722c1.325,5.34,4.724,10.264,8.861,14.297
				c2.953,2.878,6.402,5.498,8.213,9.096c3.595,7.143-0.616,14.618-4.325,20.866c-2.172,3.66-4.229,7.496-4.863,11.814
				c-0.634,4.318,0.355,9.247,3.588,12.774c5.37,5.857,14.385,5.773,21.652,4.315c3.114-0.625,6.247-1.406,9.522-1.101
				c3.276,0.305,6.81,1.952,8.429,4.882c2.701,4.889-1.058,9.977-4.679,13.509c-5.501,5.368-11.343,10.914-13.363,18.446
				c-2.021,7.531,3.151,14.8,9.342,20.848c4.731,4.622,9.268,6.551,13.521,7.535c17.183,3.976,31.493-1.916,48.428-11.633
				c8.363,8.653,13.914,19.766,15.475,30.982c0.218,1.565,0.389,3.21,1.317,4.589C206.315,352.072,208.202,352.965,208.518,352.191z
				"/>
			<path style="fill:#3B7E7A;" d="M149.05,291.802c6.897-5.005,14.006-7.321,24.568-7.114c0.327,0.006,1.002,0.061,1.756,0.163
				c6.647,8.132,12.41,16.836,18.136,25.536c-4.775-10.749-9.679-21.31-16.195-31.242c0.198-2.796,0.693-5.622,1.254-8.107
				c0.715-3.507,2.264-7.793,5.931-9.385c-7.032,0.993-9.474,7.941-9.066,14.678c-0.955-1.368-1.932-2.727-2.96-4.068
				c-6.487-8.869-14.052-16.975-20.864-25.619c-1.006-1.229-1.981-2.477-2.945-3.733c-0.783-4.453-0.688-8.409-0.63-13.387
				c0.182-5.788-0.032-11.862,1.409-17.162c-2.832,4.047-4.02,9.024-4.833,13.967c-0.62,3.628-0.621,7.434,0.059,11.181
				c-3.305-4.623-6.446-9.349-9.623-14.047c-6.192-9.09-15.065-16.137-22.916-23.871c1.038,1.341,2.067,2.689,3.09,4.04
				c3.816,5.002,10.494,14.135,12.623,17.382c3.549,6.229,6.811,12.627,10.556,18.769c-8.9-3.699-18.615-4.198-26.533,0.483
				c9.139-2.208,19.748,0.638,28.905,3.259c1.578,2.39,3.257,4.727,5.086,6.982c8.841,11.359,19.005,21.709,28.234,32.775
				c0.111,0.132,0.217,0.268,0.327,0.401c-7.771-2.652-16.59-2.419-22.815,1.845c-2.764,1.762-4.912,4.21-6.849,6.778
				c-1.491,2.011-3.297,4.091-3.134,6.858C142.69,295.657,146.467,294.094,149.05,291.802z"/>
			<g style="opacity:0.4;">
				<path style="fill:#A0D8BF;" d="M107.122,208.888c-3.954-10.166-13.322-17.549-15.395-28.56
					c-0.83,6.724,1.429,13.39,5.293,18.861c2.664,3.493,6.639,7.423,8.925,10.406c0.787,1.064,1.596,2.113,2.416,3.153
					C107.971,211.454,107.561,210.166,107.122,208.888z"/>
				<path style="fill:#A0D8BF;" d="M101.458,190.523c1.149,4.915,3.748,9.329,7.1,13.065
					C107.973,199.997,104.371,194.122,101.458,190.523z"/>
				<path style="fill:#A0D8BF;" d="M103.311,235.47c-3.759,6.357-4.195,14.014,1.262,19.555
					C102.306,248.761,102.695,241.986,103.311,235.47z"/>
				<path style="fill:#A0D8BF;" d="M108.409,243.579c-0.206,2.185-0.372,4.425,0.178,6.575c0.684,2.692,2.174,5.112,3.809,7.328
					C111.435,252.751,109.851,248.177,108.409,243.579z"/>
				<path style="fill:#A0D8BF;" d="M146.819,321.355c-9.292-4.62-17.215-12.275-21.729-21.707
					c1.527,12.01,10.901,21.923,23.105,23.132c0.757,0.099,1.521,0.137,2.283,0.183
					C149.238,322.473,148.016,321.943,146.819,321.355z"/>
				<path style="fill:#A0D8BF;" d="M138.991,309.379c3.579,5.063,8.514,9.28,14.473,11.207
					C149.118,316.253,144.44,312.267,138.991,309.379z"/>
				<path style="fill:#A0D8BF;" d="M147.332,307.988c1.537,2.503,3.687,4.568,6.257,5.992
					C151.989,311.531,149.876,309.447,147.332,307.988z"/>
				<path style="fill:#A0D8BF;" d="M154.051,213.923c-0.319,5.316-0.189,12.309,1.267,16.688
					C156.053,225.018,155.703,219.328,154.051,213.923z"/>
			</g>
		</g>
	</g>
	<g>
		<ellipse style="fill:#3C678E;" cx="250" cy="447.71" rx="149.664" ry="11.712"/>
	</g>
	<g>
		<g>
			<path style="fill:#F9DCA7;" d="M334.627,385.922c2.072-72.729,4.505-158.095,6.574-230.738c0.013-2.973-18.025-4.339-21.06-4.727
				c-14.425-1.332-28.941-1.912-43.446-2.283c-20.462-0.477-40.979-0.423-61.432,0.228c-15.269,0.563-30.63,1.19-45.751,3.267
				c-3.349,0.571-6.799,0.934-9.853,2.394c0.052,90.712,5.049,183.717,7.035,275.16c0.005,0.032,0.012,0.069,0.018,0.102
				c0.074,0.584,0.185,1.104,0.298,1.693c0,0.001,0.109,0.447,0.109,0.448c0,0,0,0,0,0c0.408,1.682,1.132,3.571,1.963,5.012
				c0.521,0.957,1.229,2.011,2.156,2.901c0.508,0.546,1.024,1.008,1.53,1.37c3.042,2.387,7.052,2.989,11.014,3.679
				c5.734,0.872,10.893,1.354,18.704,1.885c11.184,0.778,26.117,1.212,36.452,1.313c24.145,0.222,50.062-0.14,71.72-2.454
				c6.86-0.979,13.792-1.275,17.889-5.571c0.046-0.045,0.089-0.098,0.134-0.144c0.027-0.029,0.054-0.059,0.08-0.088
				c1.236-1.272,2.414-3.154,3.103-4.814c0.026-0.059,0.058-0.127,0.082-0.181l0.029-0.075c0.125-0.297,0.238-0.594,0.344-0.895
				c0.014-0.034,0.025-0.072,0.038-0.106c-0.001,0.001-0.001,0.002-0.002,0.003c0.16-0.447,0.291-0.915,0.415-1.379
				c0.02-0.069,0.044-0.15,0.062-0.212c0.015-0.067,0.025-0.12,0.04-0.185c0.165-0.605,0.261-1.238,0.37-1.853
				c-0.002,0.012-0.006,0.022-0.008,0.034c0.074-0.549,0.153-1.119,0.193-1.649l0,0v0c0.016-0.068,0.014-0.136,0.006-0.203
				C333.794,415.144,334.265,398.609,334.627,385.922z"/>
			<path style="opacity:0.4;fill:#F9DCA7;" d="M341.174,154.852c-2.31-3.45-25.955-4.736-31.251-5.22
				c-2.946,135.965-2.973,202.1-144.025,255.078c0.312,8.174,0.305,16.348,0.795,24.512c0.005,0.032,0.012,0.069,0.018,0.102
				c0.074,0.584,0.185,1.104,0.298,1.693c0,0.001,0.109,0.447,0.109,0.448c0,0,0,0,0,0c0.408,1.682,1.132,3.571,1.963,5.012
				c0.521,0.957,1.229,2.011,2.156,2.901c0.508,0.546,1.024,1.008,1.53,1.37c3.042,2.387,7.052,2.989,11.014,3.679
				c5.734,0.872,10.893,1.354,18.704,1.885c11.184,0.778,26.117,1.212,36.452,1.313c24.145,0.222,50.062-0.14,71.72-2.454
				c6.86-0.98,13.792-1.275,17.889-5.571c0.046-0.045,0.089-0.098,0.134-0.144c0.027-0.029,0.054-0.059,0.08-0.088
				c1.236-1.272,2.414-3.154,3.103-4.814c0.026-0.059,0.058-0.127,0.082-0.181l0.029-0.075c0.125-0.297,0.238-0.594,0.344-0.895
				c0.014-0.034,0.025-0.072,0.038-0.106c-0.001,0.001-0.001,0.002-0.002,0.003c0.16-0.447,0.291-0.915,0.415-1.379
				c0.02-0.069,0.044-0.15,0.062-0.212c0.015-0.067,0.025-0.12,0.04-0.185c0.165-0.604,0.261-1.238,0.37-1.853
				c-0.002,0.012-0.006,0.022-0.008,0.034c0.074-0.549,0.153-1.119,0.193-1.649v0c0.016-0.068,0.014-0.136,0.006-0.203
				c2.499-87.702,5.269-184.908,7.769-272.667C341.226,155.073,341.206,154.961,341.174,154.852z"/>
			<g style="opacity:0.4;">
				
					<rect x="172.61" y="159.628" transform="matrix(0.7416 -0.6708 0.6708 0.7416 -67.6327 160.4223)" style="opacity:0.4;fill:#F9DCA7;" width="3.668" height="16.768"/>
				
					<rect x="188.336" y="316.601" transform="matrix(0.7416 -0.6708 0.6708 0.7416 -168.868 211.5309)" style="opacity:0.4;fill:#F9DCA7;" width="3.668" height="16.768"/>
				
					<rect x="174.576" y="196.976" transform="matrix(-0.6065 -0.7951 0.7951 -0.6065 120.1319 470.173)" style="opacity:0.4;fill:#F9DCA7;" width="3.668" height="16.768"/>
				
					<rect x="186.217" y="230.712" transform="matrix(-0.6065 -0.7951 0.7951 -0.6065 112.0045 533.6251)" style="opacity:0.4;fill:#F9DCA7;" width="3.668" height="16.768"/>
				
					<rect x="213.047" y="208.489" transform="matrix(0.7416 -0.6708 0.6708 0.7416 -89.9617 200.1774)" style="opacity:0.4;fill:#F9DCA7;" width="3.668" height="16.768"/>
				
					<rect x="320.418" y="351.747" transform="matrix(0.9988 0.0483 -0.0483 0.9988 17.7634 -15.1388)" style="opacity:0.4;fill:#F9DCA7;" width="3.668" height="16.768"/>
				
					<rect x="313.929" y="238.468" transform="matrix(0.9988 0.0483 -0.0483 0.9988 12.2937 -14.9659)" style="opacity:0.4;fill:#F9DCA7;" width="3.668" height="16.768"/>
				
					<rect x="276.787" y="204.781" transform="matrix(0.9988 0.0483 -0.0483 0.9988 10.6168 -13.2036)" style="opacity:0.4;fill:#F9DCA7;" width="3.668" height="16.768"/>
				
					<rect x="227.98" y="189.588" transform="matrix(0.9988 0.0483 -0.0483 0.9988 9.8264 -10.8649)" style="opacity:0.4;fill:#F9DCA7;" width="3.668" height="16.768"/>
				
					<rect x="316.81" y="394.063" transform="matrix(0.4811 0.8767 -0.8767 0.4811 518.1696 -70.5084)" style="opacity:0.4;fill:#F9DCA7;" width="3.668" height="16.768"/>
				
					<rect x="215.983" y="292.491" transform="matrix(0.9988 0.0483 -0.0483 0.9988 14.7891 -10.1711)" style="opacity:0.4;fill:#F9DCA7;" width="3.668" height="16.768"/>
				
					<rect x="174.321" y="281.665" transform="matrix(0.9988 0.0483 -0.0483 0.9988 14.2094 -8.1667)" style="opacity:0.4;fill:#F9DCA7;" width="3.668" height="16.768"/>
				
					<rect x="295.171" y="284.347" transform="matrix(0.9988 0.0483 -0.0483 0.9988 14.4882 -14.0062)" style="opacity:0.4;fill:#F9DCA7;" width="3.668" height="16.768"/>
				
					<rect x="279.446" y="314.675" transform="matrix(0.7416 -0.6708 0.6708 0.7416 -144.0362 272.1523)" style="opacity:0.4;fill:#F9DCA7;" width="3.668" height="16.768"/>
				
					<rect x="218.51" y="346.687" transform="matrix(0.7416 -0.6708 0.6708 0.7416 -181.2542 239.5471)" style="opacity:0.4;fill:#F9DCA7;" width="3.668" height="16.768"/>
				
					<rect x="253.528" y="213.699" transform="matrix(0.7416 -0.6708 0.6708 0.7416 -82.9974 228.6776)" style="opacity:0.4;fill:#F9DCA7;" width="3.668" height="16.768"/>
				
					<rect x="215.14" y="161.914" transform="matrix(0.5626 0.8267 -0.8267 0.5626 235.6983 -104.8907)" style="opacity:0.4;fill:#F9DCA7;" width="3.668" height="16.768"/>
				
					<rect x="201.942" y="255.424" transform="matrix(0.5626 0.8267 -0.8267 0.5626 307.2382 -53.0756)" style="opacity:0.4;fill:#F9DCA7;" width="3.668" height="16.768"/>
				
					<rect x="252.769" y="350.057" transform="matrix(0.5626 0.8267 -0.8267 0.5626 407.7084 -53.7016)" style="opacity:0.4;fill:#F9DCA7;" width="3.668" height="16.768"/>
				
					<rect x="228.539" y="390.186" transform="matrix(0.5626 0.8267 -0.8267 0.5626 430.2804 -16.1193)" style="opacity:0.4;fill:#F9DCA7;" width="3.668" height="16.768"/>
				
					<rect x="256.139" y="183.536" transform="matrix(0.5626 0.8267 -0.8267 0.5626 271.5074 -129.3276)" style="opacity:0.4;fill:#F9DCA7;" width="3.668" height="16.768"/>
				
					<rect x="277.72" y="163.946" transform="matrix(0.5626 0.8267 -0.8267 0.5626 264.7516 -155.7389)" style="opacity:0.4;fill:#F9DCA7;" width="3.668" height="16.768"/>
				
					<rect x="295.452" y="180.166" transform="matrix(-0.7075 0.7067 -0.7067 -0.7075 640.8722 111.8745)" style="opacity:0.4;fill:#F9DCA7;" width="3.668" height="16.768"/>
				
					<rect x="297.98" y="216.11" transform="matrix(0.5626 0.8267 -0.8267 0.5626 316.7449 -149.6705)" style="opacity:0.4;fill:#F9DCA7;" width="3.668" height="16.768"/>
				
					<rect x="238.144" y="321.831" transform="matrix(0.5626 0.8267 -0.8267 0.5626 377.9698 -53.9589)" style="opacity:0.4;fill:#F9DCA7;" width="3.668" height="16.768"/>
				
					<rect x="287.351" y="348.731" transform="matrix(0.9352 -0.3542 0.3542 0.9352 -107.7339 125.5669)" style="opacity:0.4;fill:#F9DCA7;" width="3.668" height="16.768"/>
				
					<rect x="321.731" y="167.684" transform="matrix(0.5626 0.8267 -0.8267 0.5626 287.0943 -190.4893)" style="opacity:0.4;fill:#F9DCA7;" width="3.668" height="16.768"/>
				
					<rect x="323.399" y="201.794" transform="matrix(-0.7076 0.7067 -0.7067 -0.7076 703.8776 129.0622)" style="opacity:0.4;fill:#F9DCA7;" width="3.668" height="16.768"/>
				
					<rect x="245.621" y="249.768" transform="matrix(0.7416 -0.6708 0.6708 0.7416 -109.236 232.6936)" style="opacity:0.4;fill:#F9DCA7;" width="3.668" height="16.768"/>
				
					<rect x="247.587" y="293.294" transform="matrix(0.7416 -0.6708 0.6708 0.7416 -137.9241 245.2489)" style="opacity:0.4;fill:#F9DCA7;" width="3.668" height="16.768"/>
				
					<rect x="288.151" y="252.054" transform="matrix(0.5626 0.8267 -0.8267 0.5626 342.1561 -125.8231)" style="opacity:0.4;fill:#F9DCA7;" width="3.668" height="16.768"/>
				
					<rect x="264.669" y="387.09" transform="matrix(0.8343 -0.5514 0.5514 0.8343 -173.881 212.4826)" style="opacity:0.4;fill:#F9DCA7;" width="3.668" height="16.768"/>
				
					<rect x="198.292" y="382.631" transform="matrix(0.5626 0.8267 -0.8267 0.5626 410.8033 5.5826)" style="opacity:0.4;fill:#F9DCA7;" width="3.668" height="16.768"/>
				
					<rect x="329.15" y="273.676" transform="matrix(0.5626 0.8267 -0.8267 0.5626 377.9652 -150.2601)" style="opacity:0.4;fill:#F9DCA7;" width="3.668" height="16.768"/>
				
					<rect x="327.745" y="320.572" transform="matrix(0.5626 0.8267 -0.8267 0.5626 416.1282 -128.5854)" style="opacity:0.4;fill:#F9DCA7;" width="3.668" height="16.768"/>
				
					<rect x="181.527" y="354.933" transform="matrix(-0.7075 0.7067 -0.7067 -0.7075 569.8422 490.8038)" style="opacity:0.4;fill:#F9DCA7;" width="3.668" height="16.768"/>
				
					<rect x="291.762" y="380.266" transform="matrix(-0.7075 0.7067 -0.7067 -0.7075 775.9764 456.1595)" style="opacity:0.4;fill:#F9DCA7;" width="3.668" height="16.768"/>
			</g>
			<g>
				<circle style="fill:#EAB06E;" cx="250" cy="279.072" r="53.114"/>
				<circle style="fill:#52AEA9;" cx="250" cy="279.072" r="49.057"/>
				<path style="opacity:0.4;fill:#52AEA9;" d="M289.87,250.507c-5.062,35.463-35.551,62.729-72.414,62.729
					c-0.904,0-1.802-0.022-2.698-0.055c8.918,9.213,21.407,14.948,35.242,14.948c27.093,0,49.057-21.964,49.057-49.057
					C299.057,268.412,295.646,258.553,289.87,250.507z"/>
				<path style="fill:#FFFFFF;" d="M250,315.639c0.893,0,1.618-0.724,1.618-1.618v-7.817c16.761-0.845,30.138-14.747,30.138-31.714
					c0-0.893-0.724-1.618-1.617-1.618c-12.508,0-23.346,7.271-28.52,17.807v-3.6c5.269-5.514,8.169-12.715,8.169-20.367
					c0-7.882-3.069-15.291-8.642-20.864c-0.632-0.632-1.656-0.631-2.288,0c-11.341,11.342-11.494,29.69-0.474,41.23v3.601
					c-5.174-10.535-16.011-17.806-28.519-17.806c-0.894,0-1.618,0.724-1.618,1.618c0,16.967,13.376,30.868,30.137,31.714v7.817
					C248.382,314.914,249.106,315.639,250,315.639z M278.471,276.157c-0.834,14.401-12.405,25.971-26.806,26.805
					C252.499,288.561,264.07,276.991,278.471,276.157z M250,249.354c4.236,4.798,6.55,10.901,6.55,17.358
					c0,6.458-2.315,12.56-6.55,17.358C241.281,274.18,241.281,259.245,250,249.354z M221.529,276.157
					c14.401,0.834,25.971,12.404,26.805,26.805C233.933,302.128,222.363,290.558,221.529,276.157z M291.293,289.471
					c-2.26,8.851-7.393,16.857-14.551,22.631c-7.538,6.081-17.034,9.43-26.74,9.43c-10.675,0-20.889-3.965-28.76-11.164
					c-7.821-7.154-12.676-16.881-13.671-27.39c-0.065-0.689,0.44-1.299,1.129-1.365c0.69-0.073,1.3,0.44,1.365,1.129
					c0.936,9.89,5.506,19.044,12.868,25.778c7.408,6.776,17.022,10.507,27.07,10.507c9.135,0,18.073-3.152,25.167-8.875
					c6.69-5.397,11.501-12.863,13.652-21.122l-2.468-0.44l4.828-5.73l2.549,7.046L291.293,289.471z M206.269,267.909l2.438,0.435
					c2.26-8.851,7.394-16.857,14.553-22.631c7.539-6.081,17.036-9.43,26.742-9.43c10.675,0,20.889,3.965,28.758,11.164
					c7.819,7.153,12.673,16.88,13.668,27.39c0.065,0.688-0.44,1.299-1.129,1.365c-0.04,0.004-0.08,0.006-0.12,0.006
					c-0.639,0-1.184-0.486-1.245-1.135c-0.936-9.89-5.505-19.045-12.866-25.778c-7.407-6.776-17.019-10.507-27.067-10.507
					c-9.135,0-18.074,3.152-25.17,8.875c-6.691,5.396-11.504,12.864-13.654,21.122l2.468,0.44l-4.828,5.729L206.269,267.909z"/>
			</g>
			<path style="opacity:0.2;fill:#FFFFFF;" d="M192.528,243.278L192.528,243.278c-8.812,0-15.956-7.144-15.956-15.956v-89.825
				h31.911v89.825C208.484,236.135,201.341,243.278,192.528,243.278z"/>
		</g>
		<path style="fill:#F4D0D5;" d="M333.233,430.102c0.083-0.54,0.149-1.089,0.193-1.649c-0.115,0.351-0.458,0.599-0.776,0.779
			c-1.421,0.764-3.028,1.078-4.594,1.434c-14.043,2.539-28.377,2.974-42.618,3.633c-31.268,1.024-62.899,0.955-94.157-1.286
			c-7.241-0.647-14.565-1.128-21.633-2.901c-0.982-0.31-2.074-0.567-2.84-1.286c-0.001,0-0.001-0.001-0.002-0.002
			c-0.122-0.113-0.232-0.286-0.244-0.443c0.27,3.943,1.917,8.524,4.487,11.152c0.724,0.852,2.368,2.296,3.913,2.981l0.1,0.052
			c0.016,0.007,0.035,0.014,0.051,0.02c0.71,0.33,1.519,0.628,2.484,0.914c0.037,0.012,0.079,0.027,0.114,0.039l0.105,0.027
			c8.334,2.158,17.563,2.581,26.257,3.241c11.88,0.787,26.068,1.145,38.647,1.252c12.301,0.132,36.361-0.081,54.597-1.34
			c6.726-0.408,17.915-1.455,22.864-2.642c0.112-0.027,0.201-0.049,0.304-0.075c1.642-0.355,2.724-0.716,4.104-1.283
			c1.501-0.635,2.728-1.539,3.728-2.52c0.81-0.762,1.563-1.68,2.246-2.78l0.041-0.06c-0.004,0.004-0.009,0.009-0.013,0.013
			c0.166-0.268,0.349-0.556,0.498-0.835c0.336-0.601,0.56-1.073,0.78-1.602c0.026-0.057,0.054-0.118,0.077-0.168
			c0.123-0.33,0.288-0.739,0.41-1.076c-0.001,0.001-0.001,0.002-0.002,0.004c0.243-0.655,0.453-1.532,0.62-2.194
			c0.109-0.477,0.18-0.958,0.267-1.435C333.24,430.08,333.236,430.091,333.233,430.102z"/>
		<path style="fill:#EA9696;" d="M333.78,410.489c-0.655,0.681-1.637,0.943-2.526,1.241c-2.135,0.637-4.341,1.006-6.552,1.357
			c-7.27,1.081-14.604,1.645-21.956,2.128c-19.335,1.197-38.698,1.534-58.089,1.458c-18.004-0.116-36.038-0.554-53.979-1.924
			c-4.097-0.434-23.601-1.633-24.637-4.669c0.27,6.181,0.173,12.449,0.63,18.588c0.634,0.763,1.667,1.014,2.583,1.333
			c2.432,0.714,4.985,1.114,7.508,1.492c22.279,2.836,44.832,3.147,67.276,3.412c22.372,0.074,44.778-0.291,67.073-2.085
			c5.775-0.518,11.532-1.046,17.202-2.209c1.248-0.262,2.483-0.578,3.663-1.039c0.563-0.274,1.23-0.507,1.453-1.119l0.522-18.275
			C333.925,410.282,333.863,410.386,333.78,410.489z"/>
		<g>
			<g>
				<path style="fill:#52AEA9;" d="M345.832,152.119c0.003-0.067,0-0.157,0.004-0.224c0,0.003-0.003,0.006-0.003,0.009l0-0.121
					c0-0.002,0-0.005,0-0.007v-0.007l-0.028-0.337c-0.808-6.596-1.753-14.308-2.556-20.859c0,0,0-0.001,0-0.001
					c-0.02-0.143-0.053-0.333-0.075-0.476c0.003,0.027,0.008,0.061,0.011,0.09c-0.006-0.031-0.01-0.065-0.016-0.095
					c-0.006-0.038-0.013-0.08-0.019-0.114c-0.005-0.017-0.011-0.035-0.016-0.052c0-0.001-0.001-0.002-0.001-0.003
					c-0.005-0.031-0.01-0.057-0.015-0.091c-0.004-0.013-0.009-0.024-0.013-0.037c-0.026-0.114-0.054-0.223-0.083-0.326
					c-0.009-0.033-0.015-0.069-0.027-0.101c-0.024-0.081-0.049-0.157-0.074-0.233c0.009,0.03,0.017,0.061,0.026,0.091
					c-0.04-0.114-0.075-0.225-0.113-0.337c0.03,0.079,0.059,0.162,0.087,0.246c-0.206-0.716-0.747-1.693-1.17-2.212
					c-0.039-0.053-0.078-0.108-0.118-0.159c-0.512-0.687-1.135-1.294-1.899-1.829c-0.206-0.181-0.428-0.392-0.657-0.419
					c-0.133-0.079-0.274-0.154-0.414-0.23c-3.89-2.056-9.795-2.706-14.547-3.386c-0.034-0.004-0.074-0.009-0.108-0.013
					c-16.668-2.293-50.939-3.282-67.162-3.277c-28.843-0.094-60.199,0.47-83.707,3.667c-0.003,0-0.007,0.001-0.011,0.001
					c-5.386,0.98-10.721,1.286-14.354,5.01c-0.091,0.094-0.177,0.195-0.257,0.3c-0.203,0.223-0.521,0.677-0.731,1.022l0.005-0.006
					c-0.269,0.446-0.538,1.01-0.683,1.465c-0.006,0.016-0.01,0.033-0.016,0.049c-0.001,0.001-0.002,0.002-0.002,0.003l-0.027,0.077
					c0.006-0.018,0.014-0.031,0.021-0.049c-0.049,0.157-0.097,0.328-0.147,0.514c-0.008,0.024-0.018,0.052-0.026,0.075
					c-0.008,0.035-0.011,0.056-0.018,0.089c-0.005,0.018-0.011,0.04-0.015,0.058c-0.032,0.171-0.064,0.349-0.091,0.509
					c0.001-0.002,0.003-0.005,0.003-0.007c-0.023,0.102-2.557,20.869-2.575,20.988c0,0,0,0,0,0c0,0,0,0,0,0c0,0.001,0,0.001,0,0.002
					c-0.005,0.047-0.01,0.103-0.015,0.157c0-0.01-0.001-0.019-0.002-0.029c-0.008,0.036-0.005,0.072-0.006,0.108
					c-0.005,0.051-0.01,0.103-0.014,0.148l-0.004,0.244c0.001-0.026,0.003-0.057,0.005-0.086c0.003,0.094-0.009,0.188,0.006,0.278
					c0.004,0.089,0.012,0.175,0.025,0.264c0.001,0.01,0.003,0.02,0.004,0.029c0.002,0.015,0.003,0.028,0.006,0.044l0-0.009
					c0.003,0.023,0.008,0.046,0.011,0.069c-0.003-0.017-0.008-0.044-0.011-0.06l0.001,0.032l0.022,0.107
					c0,0.003,0.001,0.005,0.002,0.008c0.01,0.048,0.021,0.106,0.031,0.155c-0.003-0.018-0.005-0.027-0.008-0.044
					c0.028,0.115,0.056,0.224,0.093,0.339c-0.001-0.005-0.002-0.011-0.003-0.016c0.005,0.016,0.009,0.032,0.014,0.048
					c-0.003-0.011-0.008-0.021-0.011-0.032c0.034,0.16,0.15,0.421,0.244,0.621c0.089,0.268,0.198,0.456,0.356,0.606
					c0.01,0.015,0.022,0.029,0.032,0.044c0.03,0.043,0.06,0.085,0.093,0.127c0.734,0.991,2.031,1.789,4.258,2.495
					c2.505,0.874,7.278,1.602,10.62,2.065c0.03,0.004,0.065,0.008,0.095,0.012c0.029,0.004,0.062,0.009,0.09,0.013
					c22.857,2.952,55.072,3.591,78.237,3.653c13.447,0.025,27.792-0.196,41.321-0.714c19.89-0.995,34.713-1.202,50.439-4.888
					l-0.022,0.007c0.008-0.003,0.015-0.005,0.023-0.007c0.82-0.239,1.705-0.543,2.33-0.84c0.521-0.23,0.875-0.433,1.223-0.705
					c0.157-0.109,0.303-0.226,0.452-0.344c0.409-0.327,0.719-0.665,0.953-1.014c0.007-0.01,0.013-0.02,0.02-0.03
					c0.043-0.065,0.083-0.13,0.121-0.195c0.052-0.086,0.102-0.173,0.143-0.259c0.027-0.053,0.05-0.105,0.074-0.158
					c0.004-0.006,0.009-0.014,0.013-0.02l0.034-0.085c0.029-0.063,0.056-0.127,0.078-0.192l0.038-0.094
					c-0.003,0.005-0.009,0.01-0.011,0.015c0.003-0.009,0.007-0.019,0.01-0.028c0.006-0.012,0.011-0.022,0.017-0.034l0.02-0.073
					c0.02-0.073,0.042-0.145,0.059-0.217l0.025-0.09c0-0.001,0-0.002,0.001-0.003h0c0.009-0.04,0.017-0.088,0.024-0.136
					c0.006-0.034,0.013-0.068,0.018-0.101c0.004-0.023,0.007-0.048,0.012-0.068c0,0.002-0.002,0.004-0.002,0.006l0.007-0.038
					c0.004-0.044,0.017-0.187,0.02-0.23L345.832,152.119z M342.75,128.683c-0.004-0.01-0.008-0.02-0.012-0.03
					c0.019,0.044,0.037,0.091,0.055,0.137C342.779,128.753,342.765,128.719,342.75,128.683z"/>
				<g>
					<path style="fill:#AFD9D7;" d="M343.244,130.661c0.002,0.015,0.004,0.033,0.006,0.048c0.01-0.196-0.054-0.418-0.077-0.612
						c0.003,0.027,0.008,0.061,0.011,0.09c-0.016-0.089-0.033-0.173-0.051-0.259c-0.006-0.033-0.01-0.06-0.016-0.096
						c-0.004-0.013-0.009-0.024-0.013-0.037c-0.056-0.243-0.118-0.461-0.184-0.66c0.013,0.043,0.025,0.086,0.036,0.129
						c-0.04-0.128-0.08-0.256-0.124-0.375c0.03,0.079,0.059,0.162,0.087,0.246c-0.09-0.304-0.218-0.621-0.402-0.978
						c-0.304-0.603-0.497-0.893-0.812-1.287c-0.513-0.662-1.007-1.157-1.5-1.554c0.003,0.002,0.006,0.004,0.009,0.007l-0.277-0.225
						c-0.27-0.177-0.578-0.588-0.9-0.59c-0.639-0.407-1.39-0.733-2.148-1.012c0,0,0,0,0,0c-1.585-0.57-2.183-0.685-3.52-1.031
						c-0.811-0.191-1.657-0.356-2.527-0.524c0.026,0.004,0.057,0.008,0.081,0.011c-12.931-2.673-47.405-4.133-67.642-4.284
						c-28.523-0.331-64.138,0.322-87.232,3.212c0.036-0.005,0.077-0.01,0.112-0.015c-0.874,0.113-1.953,0.26-3.035,0.413
						c-0.033,0.005-0.068,0.011-0.101,0.016c0.021-0.003,0.044-0.006,0.065-0.009c-0.006,0.001-0.061,0.008-0.068,0.009
						c0.001,0,0.002,0,0.003,0c-3.893,0.573-8.109,1.347-10.836,2.577l-0.004,0.002c-1.284,0.58-2.494,1.387-3.42,2.422
						c-0.079,0.087-0.151,0.174-0.223,0.261c-0.14,0.17-0.555,0.612-1.073,1.63c-0.171,0.35-0.276,0.613-0.365,0.884
						c-0.009,0.025-0.015,0.052-0.023,0.077c-0.068,0.214-0.146,0.507-0.207,0.74c-0.045,0.208-0.081,0.419-0.108,0.633
						c-0.014,0.064-0.018,0.128-0.012,0.192c0,0,0,0.001,0,0.001c0,0,0,0.001,0,0.001c0,0.003,0.002,0.006,0.002,0.009
						c0.003,0.029,0.009,0.059,0.016,0.088c0.001,0.003,0.001,0.006,0.002,0.009c0.001,0.002,0,0.003,0.001,0.005
						c0.003,0.007,0.005,0.016,0.008,0.023c0.001,0.005,0.003,0.009,0.005,0.014c0.002,0.004,0.002,0.008,0.004,0.012
						c0.002,0.005,0.003,0.009,0.005,0.014c0.001,0.003,0.002,0.006,0.003,0.008c0.001,0.002,0.002,0.005,0.003,0.007
						c0,0.001,0.001,0.002,0.001,0.003c0,0,0,0,0,0.001c0,0,0.001,0.001,0.001,0.001c0.03,0.062,0.063,0.123,0.102,0.18
						c0.001,0.001,0.001,0.001,0.001,0.002c0.001,0.001,0.002,0.002,0.003,0.003c0.008,0.012,0.019,0.022,0.026,0.035
						c0.018,0.022,0.037,0.043,0.054,0.066c0.002,0.002,0.006,0.005,0.008,0.007c0,0,0.001,0.001,0.001,0.001
						c0.007,0.008,0.013,0.017,0.021,0.023c0,0,0,0,0,0.001c0.001,0.002,0.002,0.003,0.004,0.005
						c0.002,0.002,0.004,0.004,0.006,0.005c0.008,0.008,0.016,0.016,0.023,0.024c0.003,0.003,0.006,0.007,0.01,0.01
						c0.002,0.002,0.004,0.004,0.006,0.005c0.004,0.004,0.008,0.007,0.011,0.011c0.067,0.06,0.135,0.12,0.207,0.174
						c0,0,0.001,0,0.001,0.001c0.046,0.036,0.096,0.066,0.142,0.101c0,0,0.001,0.001,0.001,0.001c0,0,0,0,0,0
						c0.02,0.012,0.04,0.025,0.059,0.038c0.029,0.018,0.058,0.037,0.088,0.055c0.116,0.069,0.234,0.132,0.354,0.194
						c0.005,0.002,0.009,0.005,0.014,0.007c0.045,0.022,0.092,0.043,0.137,0.066c0.001,0.001,0.003,0.001,0.004,0.002
						c0.064,0.028,0.128,0.06,0.193,0.087c0.041,0.019,0.084,0.036,0.126,0.055c0.151,0.06,0.301,0.125,0.455,0.179
						c0.31,0.116,0.625,0.219,0.942,0.317c0.001,0,0.002,0.001,0.003,0.001c0.001,0,0.002,0.001,0.003,0.001
						c0.031,0.01,0.063,0.019,0.094,0.029c0,0,0.001,0,0.001,0c0.352,0.105,0.705,0.203,1.061,0.295
						c0.07,0.018,0.141,0.036,0.211,0.053c0.001,0,0.002,0.001,0.003,0.001c0.009,0.002,0.017,0.004,0.025,0.007c0,0,0,0,0.001,0
						c0.51,0.127,1.022,0.244,1.537,0.354c0.001,0,0.002,0.001,0.003,0.001c0.003,0,0.005,0.001,0.008,0.002
						c0.337,0.071,0.674,0.14,1.012,0.206c0.001,0,0.002,0,0.003,0.001c0.003,0.001,0.007,0.001,0.01,0.002
						c0.001,0,0.003,0.001,0.004,0.001c0.341,0.066,0.683,0.131,1.025,0.192c0.001,0,0.002,0,0.003,0.001
						c0.446,0.081,0.894,0.157,1.342,0.231c0,0,0,0,0,0c0.368,0.06,0.736,0.119,1.104,0.176c0.086,0.013,0.172,0.027,0.259,0.039
						c0.709,0.109,1.418,0.21,2.129,0.307c0.001,0,0.002,0,0.003,0.001c0.42,0.057,0.84,0.113,1.26,0.167
						c0.438,0.056,0.875,0.111,1.313,0.164c0.001,0,0.003,0,0.004,0c0.137,0.017,0.273,0.033,0.41,0.05c0,0,0,0,0.001,0
						c0.192,0.022,0.384,0.046,0.576,0.068c0,0,0,0,0,0c0.337,0.039,0.673,0.078,1.01,0.115c0.454,0.051,0.907,0.1,1.361,0.149l0,0
						c1.378,0.147,2.756,0.282,4.136,0.41c0.001,0,0.002,0,0.003,0c0.429,0.039,0.857,0.079,1.286,0.116
						c0.002,0,0.004,0,0.006,0.001c1.709,0.152,3.419,0.29,5.13,0.42c0.001,0,0.002,0,0.003,0c0.38,0.028,0.76,0.057,1.14,0.085
						c0.124,0.009,0.247,0.018,0.372,0.027c0,0,0,0,0,0c1.321,0.096,2.642,0.186,3.964,0.271c0,0,0,0-0.001,0
						c1.331,0.086,2.662,0.167,3.993,0.245c0,0,0,0,0,0c1.281,0.074,2.563,0.144,3.846,0.211c0,0-0.001,0-0.001,0
						c1.276,0.067,2.551,0.129,3.827,0.189c0,0,0,0-0.001,0c0.428,0.02,0.856,0.04,1.284,0.059c0,0,0,0,0,0
						c0.199,0.009,0.398,0.018,0.597,0.027c0.629,0.028,1.258,0.054,1.887,0.081c0,0,0,0,0,0c1.247,0.052,2.495,0.101,3.743,0.148
						c0,0,0,0,0,0c1.221,0.045,2.442,0.088,3.664,0.129c0,0,0,0-0.001,0c1.207,0.04,2.415,0.077,3.623,0.113c0,0,0,0-0.001,0
						c1.094,0.032,2.189,0.062,3.283,0.091c0,0-0.001,0-0.001,0c2.04,0.053,4.08,0.099,6.121,0.141c0,0-0.001,0-0.001,0
						c0.84,0.017,1.679,0.032,2.519,0.047c-0.001,0-0.001,0-0.001,0c0.848,0.015,1.697,0.029,2.546,0.042c0,0,0,0,0,0
						c0.802,0.012,1.605,0.024,2.408,0.034c0,0-0.001,0-0.001,0c0.582,0.007,1.165,0.015,1.747,0.022c0,0-0.001,0-0.001,0
						c0.586,0.007,1.172,0.013,1.758,0.019c0,0-0.001,0-0.001,0c0.589,0.006,1.179,0.011,1.768,0.016c-0.001,0-0.002,0-0.003,0
						c0.593,0.005,1.187,0.009,1.78,0.014c-0.001,0-0.001,0-0.001,0c0.591,0.004,1.182,0.008,1.773,0.011c0,0-0.001,0-0.001,0
						c0.449,0.002,0.898,0.004,1.348,0.007c-0.001,0-0.001,0-0.002,0c0.451,0.002,0.902,0.003,1.353,0.005c-0.001,0-0.002,0-0.002,0
						c0.454,0.001,0.905,0.003,1.359,0.004c-0.001,0-0.002,0-0.003-0.001c0.454,0.002,0.909,0.001,1.363,0.002
						c-0.001,0-0.002,0-0.003-0.001c0.453,0,0.908,0.001,1.36,0.001c0,0-0.001,0-0.001,0c0.452,0,0.902-0.001,1.354-0.001
						c-0.001,0-0.003,0-0.004-0.001c0.453-0.001,0.905-0.001,1.358-0.002c0,0,0,0-0.001,0c0.462-0.001,0.923-0.003,1.385-0.005
						c-0.002,0-0.003,0-0.005-0.001c0.461-0.001,0.923-0.004,1.384-0.006c0,0-0.001,0-0.001,0c0.459-0.003,0.917-0.005,1.375-0.008
						c0,0-0.001,0-0.002,0c0.457-0.003,0.913-0.006,1.37-0.009c-0.001,0-0.002,0-0.003,0c0.456-0.004,0.911-0.007,1.366-0.011
						c0,0-0.001,0-0.001,0c0.454-0.004,0.905-0.009,1.358-0.012c-0.001,0-0.002,0-0.003,0c0.648-0.006,1.295-0.014,1.941-0.02
						c-0.003,0-0.005,0-0.007,0c0.851-0.01,1.701-0.021,2.55-0.032c-0.004,0-0.007,0-0.01-0.001c0.848-0.011,1.688-0.025,2.53-0.037
						c-0.004,0-0.006,0-0.01,0c0.84-0.013,1.672-0.029,2.506-0.043c-0.003,0-0.006,0-0.009,0c0.104-0.002,0.208-0.004,0.311-0.006
						c-0.005,0-0.01,0.001-0.015,0.001c2.34-0.045,4.671-0.096,6.998-0.155c-0.001,0-0.002,0-0.003,0
						c0.94-0.025,1.888-0.05,2.823-0.077c-0.002,0-0.003,0-0.005,0.001c0.602-0.018,1.203-0.035,1.805-0.053
						c-0.001,0-0.001,0-0.002,0c0.596-0.019,1.191-0.037,1.786-0.056c0,0-0.001,0-0.001,0c0.59-0.019,1.181-0.04,1.771-0.059
						c-0.001,0-0.003,0-0.004,0.001c0.572-0.021,1.141-0.039,1.712-0.061c-0.001,0-0.003,0.001-0.004,0.001
						c0.508-0.019,1.017-0.037,1.525-0.057c-0.001,0-0.002,0-0.002,0c0.503-0.02,1.006-0.038,1.509-0.059c0,0-0.001,0-0.001,0
						c0.498-0.021,0.996-0.04,1.494-0.061c-0.001,0-0.001,0-0.001,0c0.494-0.021,0.986-0.042,1.479-0.063c0,0-0.001,0-0.002,0
						c0.488-0.022,0.976-0.043,1.464-0.065c-0.001,0-0.001,0-0.002,0.001c0.625-0.03,1.251-0.057,1.876-0.088
						c-0.001,0-0.002,0-0.003,0.001c0.621-0.03,1.244-0.061,1.865-0.091c-0.001,0-0.001,0-0.001,0
						c0.098-0.005,0.193-0.01,0.291-0.015c0.002,0,0.004,0,0.006,0c0.513-0.026,1.029-0.053,1.54-0.08c-0.001,0-0.002,0-0.002,0.001
						c0.602-0.033,1.205-0.064,1.807-0.098c-0.001,0-0.001,0-0.002,0c0.913-0.051,1.827-0.104,2.739-0.158c0,0,0,0-0.001,0
						c0.903-0.056,1.802-0.11,2.704-0.169c-0.001,0-0.002,0-0.003,0.001c1.036-0.068,2.074-0.138,3.108-0.21c0,0,0,0,0,0
						c1.213-0.087,2.425-0.176,3.637-0.271c-0.001,0-0.001,0-0.002,0.001c1.23-0.098,2.46-0.199,3.687-0.307
						c-0.001,0-0.003,0.001-0.004,0.001c1.186-0.105,2.371-0.215,3.552-0.332c0,0,0,0-0.001,0c1.046-0.104,2.058-0.21,3.092-0.324
						c-0.001,0-0.002,0.001-0.003,0.001c0.933-0.106,1.856-0.211,2.782-0.327c-0.001,0.001-0.002,0.001-0.003,0.001
						c0.809-0.103,1.617-0.205,2.421-0.318c-0.001,0-0.002,0.001-0.003,0.001c0.719-0.102,1.441-0.204,2.155-0.317
						c-0.001,0.001-0.002,0.001-0.003,0.002c0.634-0.101,1.267-0.202,1.895-0.313c-0.001,0.001-0.002,0.001-0.003,0.002
						c0.564-0.1,1.133-0.204,1.691-0.315c-0.001,0.001-0.001,0.001-0.002,0.002c0.498-0.102,0.994-0.204,1.482-0.314
						c0,0-0.001,0.001-0.001,0.001c0.458-0.106,0.879-0.209,1.309-0.32c0,0,0,0.001-0.001,0.001c0.4-0.107,0.755-0.209,1.132-0.326
						c-0.001,0.001-0.001,0.002-0.002,0.002c0.328-0.107,0.646-0.211,0.959-0.335c-0.001,0.001-0.001,0.002-0.002,0.003l0,0
						c0.285-0.117,0.562-0.231,0.794-0.351c-0.001,0.001-0.002,0.003-0.002,0.005c0.215-0.117,0.436-0.239,0.597-0.359
						c0,0.002,0,0.003-0.001,0.005l0,0c0.068-0.056,0.142-0.113,0.206-0.169c0.008-0.007,0.015-0.015,0.023-0.023
						c0.072-0.068,0.133-0.136,0.182-0.204c0,0.003-0.001,0.008-0.001,0.011c0.086-0.156,0.176-0.257,0.162-0.44
						C343.244,130.665,343.244,130.663,343.244,130.661z M251.513,117.61c24.768-0.219,69.453,1.781,79.779,4.575
						c1.303,0.329,2.555,0.666,3.462,0.983c0.619,0.243,1.079,0.491,1.374,0.742c0.186,0.348,0.18,0.954-0.005,1.309
						c-0.595,0.52-1.881,1.023-3.813,1.503c-7.691,0.348-15.345,1.166-22.995,2.035l-68.883,2.738
						c-21.918-0.219-43.505-0.945-63.5-3.193c-8.774-1.112-13.739-2.436-13.432-3.851
						C164.334,120.606,203.739,117.543,251.513,117.61z M342.794,128.79c-0.021-0.055-0.043-0.106-0.064-0.158
						C342.751,128.683,342.772,128.737,342.794,128.79z"/>
					<path style="fill:#A5B9CB;" d="M336.887,123.493c0.001,0.001,0.001,0.002,0.002,0.003c0.012,0.004,0.026,0.009,0.037,0.013
						L336.887,123.493z"/>
					<path style="fill:#A5B9CB;" d="M330.936,121.954c-0.004-0.001-0.009-0.001-0.013-0.002l0.317,0.06L330.936,121.954z"/>
				</g>
				<path style="fill:#3B7E7A;" d="M345.832,152.119c0.003-0.067,0-0.157,0.004-0.224c0,0.003-0.003,0.006-0.003,0.009l0-0.121
					c-0.009-0.106-0.02-0.247-0.029-0.353c0.002,0.018-0.003,0.035-0.002,0.053c-0.016,0.081-0.114,0.254-0.567,0.865
					c-0.975,0.67-2.136,0.997-3.264,1.327c-2.856,0.769-5.778,1.229-8.708,1.653c-9.404,1.291-18.891,1.95-28.367,2.505
					c0,0-0.001,0-0.001,0c-33.333,1.759-66.778,1.812-100.134,0.478c-14.094-0.694-28.247-1.349-42.186-3.645
					c-2.316-0.439-4.666-0.865-6.846-1.783c-0.463-0.209-0.921-0.45-1.273-0.818c-0.064-0.072-0.099-0.144-0.146-0.217
					c-0.027-0.043-0.05-0.088-0.067-0.134c0,0,0-0.001,0-0.001c-0.035-0.111-0.051-0.222-0.027-0.335
					c-0.014,0.064-0.018,0.128-0.012,0.191c0,0.003-0.001,0.007-0.001,0.01c-0.001-0.024-0.003-0.047-0.004-0.071
					c-0.016,0.071-0.016,0.143-0.006,0.214c-0.058,1.179,0.378,2.045,0.677,2.485c1.15,2.756,9.607,4.18,15.28,4.91
					c30.301,3.682,68.92,3.921,100.667,3.465c14.77-0.286,27.922-0.764,41.748-1.77c8.669-0.709,21.185-1.561,28.542-3.947
					c0.006-0.002,0.014-0.004,0.02-0.006l0.02-0.008c0.424-0.145,0.841-0.303,1.214-0.471c0.59-0.253,0.963-0.465,1.338-0.757
					c0.16-0.113,0.302-0.225,0.452-0.344c0.574-0.459,0.957-0.94,1.205-1.443c0.035-0.064,0.06-0.126,0.091-0.189
					c0.009-0.014,0.02-0.031,0.029-0.044c0.033-0.082,0.081-0.195,0.112-0.277l0.038-0.094c-0.003,0.005-0.009,0.01-0.012,0.016
					c0.003-0.008,0.005-0.016,0.008-0.025c0.007-0.013,0.013-0.025,0.02-0.038l0.032-0.116c0.018-0.059,0.034-0.117,0.048-0.174
					l0.025-0.09c0-0.001,0-0.002,0.001-0.003h0c0.009-0.04,0.017-0.088,0.024-0.136c0.006-0.034,0.013-0.068,0.018-0.101
					c0.004-0.023,0.007-0.048,0.012-0.068c-0.001,0.006-0.005,0.011-0.006,0.017c0.016-0.115,0.027-0.224,0.032-0.328
					L345.832,152.119z"/>
				<path style="fill:#52AEA9;" d="M345.805,151.578c0.033-0.136-2.556-20.858-2.557-21.005c-0.264,3.019-17.754,4.402-20.952,4.82
					c-14.193,1.363-28.482,1.977-42.742,2.379c-20.389,0.535-40.839,0.518-61.232-0.059c-14.928-0.468-29.873-1.117-44.697-2.756
					c-3.025-0.446-16.847-1.715-16.856-4.438l-2.555,20.857c-0.067,3.011,17.028,4.444,19.984,4.85
					c15.592,1.572,31.297,2.215,46.983,2.641c22.582,0.553,45.21,0.48,67.782-0.309c13.868-0.532,27.782-1.215,41.553-2.867
					c4.143-0.545,8.283-1.079,12.261-2.249c0.873-0.279,1.697-0.574,2.427-1.062C345.485,152.178,345.749,151.919,345.805,151.578z"
					/>
				<path style="opacity:0.2;fill:#FFFFFF;" d="M176.573,156.45c10.602,1.005,21.253,1.606,31.911,2.01v-21.092
					c-10.661-0.419-21.314-1.029-31.911-2.108V156.45z"/>
				<path style="opacity:0.4;fill:#52AEA9;" d="M322.296,135.393c-7.624,0.732-15.277,1.244-22.937,1.627
					c-1.183,3.291-3.513,6.276-6.326,8.411c-4.715,3.579-10.564,5.256-16.27,6.833c-8.616,2.381-17.25,4.695-25.898,6.955
					c12.705-0.007,25.41-0.216,38.098-0.66c13.868-0.532,27.782-1.215,41.553-2.867c4.143-0.545,8.283-1.079,12.261-2.249
					c0.873-0.279,1.697-0.574,2.427-1.062c0.281-0.203,0.545-0.463,0.601-0.803c0.033-0.136-2.556-20.858-2.557-21.005
					C342.984,133.592,325.494,134.975,322.296,135.393z"/>
			</g>
			<g>
				<path style="fill:#3B7E7A;" d="M290.75,113.345c0,0.044,0,0.097,0.001,0.147c-0.003-0.099-0.002-0.155-0.005-0.295
					c-0.003-0.035-0.006-0.076-0.009-0.113c-0.007-0.193-0.026-0.43-0.05-0.635c-0.021-0.325-0.073-0.661-0.18-1.134l0.022,0.121
					c-0.21-0.983-0.549-1.931-1.039-2.815c0.011,0.021,0.021,0.042,0.032,0.064c-0.014-0.026-0.027-0.052-0.041-0.079
					c0.003,0.005,0.006,0.01,0.009,0.015c-0.021-0.041-0.044-0.087-0.064-0.126l-0.023-0.037c-0.084-0.147-0.318-0.512-0.407-0.664
					c0.061,0.09,0.1,0.173,0.156,0.262c-0.664-1.101-1.601-2.1-2.563-2.827c0.035,0.026,0.08,0.055,0.113,0.08l-0.224-0.175
					c-0.333-0.231-0.666-0.46-1.01-0.669c-0.042-0.027-0.091-0.061-0.131-0.086c-0.773-0.416-1.152-0.629-2.165-0.979
					c-0.007-0.002-0.012-0.003-0.019-0.005c-0.182-0.062-0.376-0.125-0.591-0.19c-0.045-0.015-0.099-0.032-0.141-0.046
					c-4.825-1.239-8.19-1.318-13.677-1.717c-7.095-0.398-13.143-0.511-20.774-0.483c-8.814,0.145-22.814,0.177-29.567,1.973
					c-0.15,0.037-0.289,0.074-0.45,0.121c-0.333,0.089-0.641,0.183-0.922,0.281l-0.121,0.039c-0.322,0.112-0.631,0.239-0.918,0.354
					l-0.131,0.051c-0.318,0.153-0.609,0.276-0.961,0.475c-1.922,1.01-3.358,2.391-4.355,4.303c-0.213,0.374-0.394,0.715-0.553,1.146
					c-0.107,0.267-0.202,0.55-0.295,0.821c-0.077,0.245-0.145,0.544-0.206,0.781c-0.124,0.644-0.17,0.9-0.199,1.303
					c-0.001,0.01-0.001,0.019-0.002,0.028c-0.003,0.022-0.007,0.049-0.009,0.07c-0.001,0.025-0.002,0.057-0.003,0.084
					c-0.019,0.254-0.025,0.492-0.031,0.767v10.802c0.059,0.335,0.446,0.471,0.727,0.604c2.504,0.871,5.175,1.045,7.82,1.366
					c4.481,0.445,9,0.7,13.512,0.887c15.652,0.569,31.37,0.541,46.995-0.544c0,0,0.001,0,0.001,0
					c3.022-0.241,6.022-0.503,8.995-1.016c1.074-0.217,2.199-0.378,3.159-0.909c0.001-0.001,0.001-0.001,0.002-0.002
					c0.15-0.104,0.285-0.213,0.293-0.388v-10.802C290.752,113.49,290.751,113.407,290.75,113.345z M290.66,112.187
					c-0.008-0.06-0.023-0.129-0.03-0.19l0.027,0.149C290.657,112.158,290.659,112.174,290.66,112.187z"/>
				<path style="fill:#243D54;" d="M250.533,100.985c-39.295-0.022-42.399,4.631-1.067,4.823
					C288.762,105.83,291.866,101.177,250.533,100.985z"/>
				<path style="fill:#52AEA9;" d="M290.751,113.576c0.003-0.071-0.001-0.16-0.001-0.231c0,0.044,0,0.097,0.001,0.147
					c-0.003-0.099-0.002-0.155-0.005-0.295c-0.003-0.035-0.006-0.076-0.009-0.113c-0.007-0.193-0.026-0.43-0.05-0.635
					c-0.021-0.325-0.073-0.661-0.18-1.134l0.022,0.121c-0.21-0.983-0.549-1.931-1.039-2.815c0.011,0.021,0.021,0.042,0.032,0.064
					c-0.014-0.026-0.027-0.052-0.041-0.079c0.003,0.005,0.006,0.01,0.009,0.015c-0.021-0.041-0.044-0.087-0.064-0.126l-0.023-0.037
					c-0.084-0.147-0.318-0.512-0.407-0.664c0.061,0.09,0.1,0.173,0.156,0.262c-0.664-1.101-1.601-2.1-2.563-2.827
					c0.035,0.026,0.08,0.055,0.113,0.08l-0.224-0.175c-0.333-0.231-0.666-0.46-1.01-0.669c-0.042-0.027-0.091-0.061-0.131-0.086
					c-0.773-0.416-1.152-0.629-2.165-0.979c-0.007-0.002-0.012-0.003-0.019-0.005c-0.182-0.062-0.376-0.125-0.591-0.19
					c-0.045-0.015-0.099-0.032-0.141-0.046c-4.825-1.239-8.19-1.318-13.677-1.717c-7.095-0.398-13.143-0.511-20.774-0.483
					c-8.814,0.145-22.814,0.177-29.567,1.973c-0.15,0.037-0.289,0.074-0.45,0.121c-0.333,0.089-0.641,0.183-0.922,0.281
					l-0.121,0.039c-0.322,0.112-0.631,0.239-0.918,0.354l-0.131,0.051c-0.318,0.153-0.609,0.276-0.961,0.475
					c-1.922,1.01-3.358,2.391-4.355,4.303c-0.213,0.374-0.394,0.715-0.553,1.146c-0.107,0.267-0.202,0.55-0.295,0.821
					c-0.077,0.245-0.145,0.544-0.206,0.781c-0.124,0.644-0.17,0.9-0.199,1.303c-0.001,0.01-0.001,0.019-0.002,0.028
					c-0.003,0.022-0.007,0.049-0.009,0.07c-0.001,0.025-0.002,0.057-0.003,0.084c-0.019,0.254-0.025,0.492-0.031,0.767
					c0,0.045,0.013,0.091,0.036,0.134c0.001,0.003,0.003,0.006,0.004,0.008c0.001,0.001,0.001,0.002,0.002,0.004
					c0.001,0.001,0.001,0.002,0.002,0.004c0.001,0.001,0.001,0.002,0.002,0.003c0.001,0.002,0.002,0.003,0.003,0.005
					c0,0,0.001,0.001,0.001,0.001c0,0.001,0.001,0.001,0.001,0.002c0,0.001,0.001,0.001,0.001,0.002
					c0.03,0.038,0.059,0.077,0.095,0.111c0.015,0.014,0.031,0.027,0.046,0.04c0.002,0.002,0.005,0.004,0.008,0.006
					c0.023,0.016,0.045,0.033,0.068,0.05c0.015,0.011,0.032,0.021,0.047,0.031c0.048,0.03,0.098,0.059,0.148,0.085
					c0.043,0.021,0.086,0.043,0.13,0.063c0.055,0.025,0.112,0.049,0.168,0.072c0.004,0.002,0.008,0.003,0.011,0.005
					c0.053,0.021,0.107,0.041,0.16,0.061c0.001,0,0.001,0,0.002,0.001c0.103,0.036,0.206,0.071,0.31,0.104
					c0.329,0.102,0.663,0.186,0.999,0.263c0.345,0.078,0.692,0.147,1.039,0.211c0.109,0.02,0.218,0.039,0.328,0.059
					c0.114,0.019,0.227,0.039,0.341,0.058c0.197,0.033,0.394,0.064,0.592,0.094c0,0,0,0,0,0c0.015,0.003,0.031,0.005,0.046,0.007
					c0.352,0.053,0.705,0.103,1.058,0.15c0,0,0,0,0,0c0.976,0.13,1.955,0.24,2.934,0.34c0,0,0,0,0,0
					c0.836,0.085,1.673,0.16,2.51,0.231c0,0,0,0,0,0c0.723,0.061,1.447,0.116,2.171,0.169c0,0,0.001,0,0.001,0
					c0.041,0.003,0.083,0.006,0.124,0.009c0.001,0,0.001,0,0.002,0c0.61,0.043,1.221,0.084,1.831,0.124v0
					c0.639,0.04,1.278,0.078,1.917,0.115c0,0,0,0-0.001,0c0.614,0.035,1.229,0.067,1.844,0.098c0,0,0,0,0,0
					c0.49,0.025,0.981,0.048,1.471,0.07c0.014,0.001,0.029,0.001,0.043,0.002c0.001,0,0.002,0,0.002,0
					c0.092,0.005,0.185,0.008,0.278,0.013c0,0,0,0,0,0c0.573,0.025,1.146,0.05,1.719,0.072c0.027,0.001,0.052,0.002,0.078,0.003
					c0,0,0,0,0,0c0.584,0.023,1.167,0.044,1.751,0.065c0,0,0,0,0,0c0.59,0.021,1.181,0.039,1.771,0.058c0,0,0,0,0,0
					c0.566,0.017,1.133,0.033,1.699,0.048l0,0c0.567,0.014,1.135,0.028,1.703,0.042c0,0,0,0-0.001,0
					c0.524,0.012,1.048,0.022,1.572,0.033c0,0-0.001,0-0.001,0c0.496,0.01,0.993,0.018,1.49,0.027c0,0,0,0,0,0
					c0.5,0.008,1.001,0.015,1.501,0.022c0,0-0.001,0-0.001,0c0.393,0.005,0.786,0.009,1.179,0.014c-0.001,0-0.001,0-0.002,0
					c0.397,0.005,0.794,0.008,1.191,0.012c0,0-0.001,0-0.001,0c0.4,0.003,0.801,0.006,1.201,0.009l0,0
					c0.35,0.001,0.699,0.003,1.049,0.005c-0.001,0-0.002-0.001-0.003-0.001c0.329,0.001,0.654,0.003,0.984,0.004
					c-0.001,0-0.002-0.001-0.002-0.001c0.329,0.001,0.659,0.002,0.987,0.002c-0.001,0-0.001,0-0.002-0.001c0.328,0,0.657,0,0.983,0
					c-0.001,0-0.002-0.001-0.003-0.001c0.332,0,0.662-0.001,0.993-0.002c-0.001,0-0.002,0-0.003-0.001
					c0.334-0.002,0.667-0.003,1-0.004c-0.001,0-0.001,0-0.002,0c0.331-0.002,0.662-0.004,0.992-0.006c-0.001,0-0.003,0-0.004-0.001
					c0.33-0.002,0.658-0.007,0.987-0.008c-0.002,0-0.003-0.001-0.005-0.001c0.441-0.004,0.879-0.009,1.317-0.013
					c-0.003,0-0.006-0.001-0.009-0.001c0.55-0.006,1.096-0.014,1.639-0.021c-0.001,0-0.003,0-0.004,0
					c2.117-0.033,4.264-0.08,6.347-0.14c-0.003,0.001-0.006,0.001-0.009,0.001c0.556-0.017,1.108-0.034,1.663-0.052
					c-0.001,0-0.002,0-0.003,0c0.489-0.017,0.976-0.033,1.464-0.051c0,0-0.001,0-0.001,0c0.432-0.017,0.864-0.032,1.295-0.05
					c0,0-0.001,0-0.001,0c0.423-0.018,0.846-0.035,1.269-0.054c0,0-0.001,0-0.001,0c0.319-0.015,0.641-0.029,0.96-0.044
					c0,0,0.001,0,0.001,0c0.168-0.007,0.336-0.016,0.504-0.024c-0.001,0-0.002,0-0.002,0.001c0,0,0,0,0,0
					c0.486-0.025,0.973-0.048,1.458-0.075c-0.001,0-0.003,0.001-0.004,0.001c0.58-0.032,1.16-0.064,1.739-0.098c0,0-0.001,0-0.001,0
					c0.614-0.038,1.227-0.076,1.836-0.116c0,0-0.001,0-0.001,0c0.678-0.046,1.354-0.094,2.03-0.145h0
					c0.623-0.05,1.237-0.097,1.857-0.152c-0.001,0.001-0.002,0.001-0.003,0.002c0.556-0.05,1.117-0.1,1.668-0.155
					c-0.001,0-0.002,0.001-0.002,0.001c0.47-0.047,0.944-0.097,1.41-0.148c0,0-0.001,0.001-0.001,0.001
					c0.41-0.046,0.823-0.095,1.231-0.145v0c0.001,0,0.002,0,0.003,0c0.363-0.047,0.724-0.095,1.082-0.144c0,0,0,0-0.001,0.001
					c0.314-0.047,0.63-0.092,0.941-0.141c0,0,0,0.001-0.001,0.001c0.281-0.048,0.563-0.093,0.842-0.143c0,0,0,0.001-0.001,0.001
					c0.087-0.016,0.17-0.033,0.255-0.049c0,0,0,0,0,0c0.159-0.03,0.323-0.061,0.479-0.092c0,0,0,0,0,0
					c0.214-0.048,0.439-0.095,0.648-0.144c0,0,0,0,0,0c0.204-0.048,0.381-0.098,0.564-0.147l0,0c0.001,0,0.002,0,0.003-0.001
					c0.161-0.049,0.319-0.1,0.474-0.15c0,0,0,0,0,0.001c0.13-0.052,0.276-0.106,0.399-0.159c0,0,0,0.001,0,0.001
					c0.107-0.052,0.209-0.108,0.302-0.163c0,0,0,0.001,0,0.001c0.03-0.021,0.05-0.041,0.076-0.062
					c0.018-0.015,0.036-0.029,0.052-0.044c0.028-0.026,0.067-0.045,0.083-0.079c0,0.002,0,0.004,0,0.007
					c0.048-0.061,0.078-0.112,0.083-0.18c0.001-0.007,0.002-0.014,0.002-0.021C290.751,113.566,290.751,113.572,290.751,113.576z
					 M290.66,112.187c-0.008-0.06-0.023-0.129-0.03-0.19l0.027,0.149C290.657,112.158,290.659,112.174,290.66,112.187z"/>
				<path style="fill:#AFD9D7;" d="M281.79,104.73c0.844-3.186-64.469-3.177-63.58,0.001
					C217.366,107.916,282.679,107.907,281.79,104.73z"/>
			</g>
		</g>
		<path style="opacity:0.4;fill:#EA9696;" d="M331.254,411.73c-2.135,0.637-4.341,1.006-6.552,1.357
			c-7.27,1.081-14.604,1.645-21.956,2.128c-4.585,0.284-9.171,0.516-13.758,0.709c-5.726,6.418-11.576,12.717-17.645,18.778
			c13.274-0.265,26.54-0.819,39.767-1.883c5.775-0.518,11.532-1.046,17.202-2.209c1.248-0.262,2.483-0.578,3.663-1.039
			c0.563-0.274,1.23-0.507,1.453-1.119l0.522-18.275c-0.023,0.104-0.085,0.208-0.168,0.311
			C333.125,411.17,332.143,411.432,331.254,411.73z"/>
		<path style="opacity:0.4;fill:#F4D0D5;" d="M332.9,429.076c-0.082,0.057-0.167,0.11-0.25,0.157
			c-1.421,0.764-3.028,1.078-4.594,1.434c-12.86,2.325-25.963,2.887-39.016,3.471c-10.591,5.591-21.672,10.246-33.066,13.934
			c12.525-0.09,28.4-0.457,41.344-1.351c6.726-0.408,17.915-1.455,22.864-2.642c0.112-0.027,0.201-0.049,0.304-0.075
			c1.642-0.355,2.724-0.716,4.104-1.283c1.501-0.635,2.728-1.539,3.728-2.52c0.81-0.762,1.563-1.68,2.246-2.78l0.041-0.06
			c-0.004,0.004-0.009,0.009-0.013,0.013c0.166-0.268,0.349-0.556,0.498-0.835c0.336-0.601,0.56-1.073,0.78-1.602
			c0.026-0.057,0.054-0.118,0.077-0.168c0.123-0.33,0.288-0.739,0.41-1.076c-0.001,0.001-0.001,0.002-0.002,0.004
			c0.243-0.655,0.453-1.532,0.62-2.194c0.109-0.477,0.18-0.958,0.267-1.435c-0.002,0.012-0.006,0.022-0.008,0.034
			c0.051-0.335,0.082-0.68,0.12-1.022C333.202,429.078,333.051,429.077,332.9,429.076z"/>
		<g>
			<path style="fill:#E87070;" d="M314.728,126.151c-3.125,0-5.658-0.533-5.658-3.658c-3.275-87.438-114.886-87.393-118.141,0
				c0,3.125-2.533,3.658-5.658,3.658s-5.658-0.533-5.658-3.658c3.887-102.446,136.909-102.397,140.774,0.001
				C320.387,125.618,317.853,126.151,314.728,126.151z"/>
			<g style="opacity:0.4;">
				<path style="fill:#E87070;" d="M320.387,122.494c-0.478-12.666-2.938-23.76-6.879-33.293c-2.732,3.2-5.605,6.213-8.697,9.012
					c2.411,7.165,3.921,15.248,4.259,24.28c0,3.125,2.533,3.658,5.658,3.658S320.387,125.618,320.387,122.494z"/>
				<path style="fill:#E87070;" d="M182.097,103.191c-1.356,5.974-2.223,12.397-2.484,19.302c0,3.125,2.533,3.658,5.658,3.658
					s5.658-0.533,5.658-3.658c0.315-8.463,1.657-16.096,3.807-22.921C190.597,101.021,186.375,102.226,182.097,103.191z"/>
			</g>
		</g>
		<g>
			<path style="opacity:0.4;fill:#52AEA9;" d="M248.812,155.769c7.701-1.155,15.591-2.598,22.41-6.548
				c3.402-2.033,5.897-4.09,8.861-6.371C269.427,146.528,258.97,150.876,248.812,155.769z"/>
			<path style="opacity:0.4;fill:#52AEA9;" d="M249.507,150.672c5.338-1.154,10.316-3.518,14.768-6.658
				C258.904,145.079,253.894,147.413,249.507,150.672z"/>
			<path style="opacity:0.4;fill:#52AEA9;" d="M239.312,147.429c3.161-0.422,6.15-1.615,8.836-3.314
				C245.007,144.601,241.971,145.669,239.312,147.429z"/>
			<path style="opacity:0.2;fill:#FFFFFF;" d="M163.55,137.929c-1.74,4.414-2.656,9.126-2.428,13.877
				C162.918,147.409,163.914,142.691,163.55,137.929z"/>
			<path style="opacity:0.2;fill:#FFFFFF;" d="M166.408,149.795c1.825-3.613,2.905-7.575,2.935-11.634
				C167.394,141.729,166.332,145.722,166.408,149.795z"/>
			<path style="opacity:0.4;fill:#52AEA9;" d="M265.786,112.016c-2.17-0.422-4.364-0.696-6.567-0.869
				c-6.804-0.546-13.639-0.056-20.366,1.046c5.012,1.1,10.15,1.921,15.295,1.741c3.886-0.247,7.725-0.996,11.538-1.758
				C265.985,112.098,266.329,112.089,265.786,112.016z"/>
			<path style="opacity:0.4;fill:#52AEA9;" d="M271.888,110.766c4.184,0.746,8.477,0.498,12.538-0.762
				C280.245,109.272,275.933,109.426,271.888,110.766z"/>
			<path style="opacity:0.4;fill:#52AEA9;" d="M270.699,113.618c4.083,0.726,8.264,0.557,12.296-0.393
				C278.942,112.183,274.682,112.345,270.699,113.618z"/>
			<path style="opacity:0.4;fill:#E87070;" d="M228.503,53.465c-7.09,2.625-13.661,6.893-18.623,12.627
				c-0.223,0.247-0.444,0.497-0.665,0.745c0.94-0.546,1.876-1.099,2.806-1.663c10.42-5.747,21.106-10.057,31.705-14.893
				C238.598,51.015,233.424,51.806,228.503,53.465z"/>
			<path style="opacity:0.4;fill:#E87070;" d="M199.609,80.055c3.411-2.578,6.413-5.651,8.942-9.098
				C204.953,73.322,201.933,76.436,199.609,80.055z"/>
			<path style="opacity:0.4;fill:#E87070;" d="M193.275,87.309c3.002-3.601,5.564-7.332,7.789-11.717
				C197.572,78.822,194.869,82.822,193.275,87.309z"/>
			<path style="opacity:0.4;fill:#F9DCA7;" d="M260.134,168.309c-9.476-1.204-19.064-0.912-28.568-0.207
				c5.143,1.361,10.428,2.365,15.751,2.567c4.828-0.01,9.606-0.737,14.335-1.652c0.454-0.081,0.908-0.169,1.362-0.256
				C262.058,168.589,261.098,168.436,260.134,168.309z"/>
			<path style="opacity:0.4;fill:#F9DCA7;" d="M227.235,175.321c6.326,2.059,13.044,2.312,19.591,1.317
				C240.509,174.533,233.779,174.222,227.235,175.321z"/>
			<path style="opacity:0.4;fill:#F9DCA7;" d="M223.691,182.541c4.327,1.266,8.894,1.397,13.306,0.5
				C232.669,181.779,228.101,181.617,223.691,182.541z"/>
			<path style="opacity:0.4;fill:#F9DCA7;" d="M249.419,182.016c1.817,0.396,3.7,0.318,5.486-0.189
				C253.088,181.445,251.203,181.494,249.419,182.016z"/>
			<path style="opacity:0.4;fill:#52AEA9;" d="M219.42,264.289c3.806-2.973,7.585-6.009,11-9.432
				c2.776-2.906,5.596-6.003,8.773-8.239C230.14,248.762,224.086,256.766,219.42,264.289z"/>
			<path style="opacity:0.4;fill:#52AEA9;" d="M226.471,265.632c4.213-2.656,7.536-6.376,11.209-9.678
				C232.641,257.232,228.957,261.25,226.471,265.632z"/>
			<path style="opacity:0.4;fill:#52AEA9;" d="M262.899,248.341c1.654,6.655,4.052,13.184,4.49,20.076
				C270.007,261.276,267.348,254.095,262.899,248.341z"/>
			<path style="opacity:0.4;fill:#52AEA9;" d="M270.454,257.91c-0.081,2.694,0.198,5.404,0.914,8.005
				c0.102,0.276,0.318,1.709,0.381,0.95C272.353,263.816,271.807,260.685,270.454,257.91z"/>
			<path style="opacity:0.4;fill:#EA9696;" d="M268.323,432.533c4.027-3.742,7.165-8.323,9.296-13.385
				C273.554,423.186,270.732,427.153,268.323,432.533z"/>
			<path style="opacity:0.4;fill:#EA9696;" d="M262.895,431.494c3.074-2.547,5.431-5.824,7.125-9.423
				C266.899,424.573,264.497,427.838,262.895,431.494z"/>
			<path style="opacity:0.4;fill:#EA9696;" d="M253.908,431.861c4.368-2.276,7.912-5.811,10.559-9.936
				C260.205,424.376,256.579,428.014,253.908,431.861z"/>
			<path style="opacity:0.4;fill:#EA9696;" d="M169.984,425.541c2.475-3.391,4.489-7.148,5.046-11.362
				C172.501,417.909,170.81,421.171,169.984,425.541z"/>
			<path style="opacity:0.4;fill:#EA9696;" d="M172.901,428.278c3.223-3.506,5.682-7.646,7.098-12.199
				C176.766,419.573,174.255,423.7,172.901,428.278z"/>
			<path style="opacity:0.4;fill:#EA9696;" d="M178.003,427.826c2.711-3.117,4.792-6.746,5.941-10.724
				C181.037,420.079,178.941,423.763,178.003,427.826z"/>
			<path style="opacity:0.4;fill:#EA9696;" d="M181.695,429.544c3.211-3.56,5.868-7.409,8.095-12.004
				C186.02,420.692,183.103,424.814,181.695,429.544z"/>
			<path style="opacity:0.2;fill:#FFFFFF;" d="M211.91,442.953c-10.842-3.128-22.177-4.508-33.432-3.379
				c9.2,2.043,17.057,3.99,26.144,3.958c2.679,0.017,5.36-0.073,8.022-0.382C212.399,443.085,212.154,443.018,211.91,442.953z"/>
			<path style="opacity:0.2;fill:#FFFFFF;" d="M216.336,440.399c5.75,1.401,11.729,1.49,17.545,0.441
				C228.145,439.269,222.155,439.37,216.336,440.399z"/>
			<path style="opacity:0.4;fill:#F9DCA7;" d="M204.987,318.113c-3.401-5.909-6.168-11.542-8.605-17.67
				c-2.166-5.149-5.188-10.096-5.893-15.72c-1.205,5.259,0.26,10.66,1.757,15.711c2.054,7.496,6.677,13.836,12.47,18.912
				c0.603,0.537,1.211,1.068,1.823,1.595C206.034,319.991,205.49,319.063,204.987,318.113z"/>
			<path style="opacity:0.4;fill:#F9DCA7;" d="M192.955,313.285c1.902,3.873,4.482,7.374,7.725,10.229
				C198.524,319.812,195.951,316.354,192.955,313.285z"/>
		</g>
	</g>
	<g>
		<path style="fill:#5480AF;" d="M204.469,390.482c-12.704-4.117-19.65-17.271-27.993-27.699
			c-12.259-15.324-29.886-26.265-49.059-30.451c-1.364-0.298-3.049-0.454-3.902,0.65c-0.642,0.831-0.493,2.006-0.297,3.038
			c3.034,15.985,9.901,31.472,21.087,43.287c11.186,11.815,26.897,19.683,43.166,19.841c3.554,0.035,7.197-0.311,10.414-1.823
			C201.103,395.814,203.85,392.97,204.469,390.482z"/>
		<path style="fill:#3C678E;" d="M130.968,340.932c11.422,12.99,23.696,25.138,36.239,37.027
			c7.496,6.976,16.412,14.331,27.141,14.611c-10.3-2.034-18.05-9.434-25.27-16.558C156.806,363.862,144.297,351.941,130.968,340.932
			L130.968,340.932z"/>
		<g style="opacity:0.2;">
			<path style="fill:#5480AF;" d="M146.424,363.523c-2.906-2.061-6.044-3.89-8.805-6.045c4.826,6.329,11.614,11.122,19.085,13.82
				C153,368.502,150.072,366.227,146.424,363.523z"/>
			<path style="fill:#5480AF;" d="M150.479,371.946c2.577,2.33,5.794,3.781,9.098,4.758
				C156.884,374.521,153.744,373.054,150.479,371.946z"/>
			<path style="fill:#5480AF;" d="M158.371,373.407c0.64,0.636,1.408,1.125,2.248,1.45
				C159.975,374.226,159.214,373.727,158.371,373.407z"/>
			<path style="fill:#5480AF;" d="M157.932,378.96c2.864,3.909,7.467,6.184,12.075,7.352
				C166.074,383.71,161.792,381.66,157.932,378.96z"/>
			<path style="fill:#5480AF;" d="M168.899,368.336c-2.617-6.511-6.365-12.536-11.259-17.58c3.338,6.351,6.896,12.608,11.378,18.236
				C169.588,369.814,169.034,368.74,168.899,368.336z"/>
			<path style="fill:#5480AF;" d="M170.939,367.561c1.032,3.095,2.704,5.932,4.908,8.337
				C174.749,372.834,173.033,370.044,170.939,367.561z"/>
		</g>
	</g>
	<g>
		<circle style="fill:#52AEA9;" cx="349.046" cy="399.621" r="8.724"/>
		
			<ellipse transform="matrix(0.9872 -0.1597 0.1597 0.9872 -43.9865 19.4483)" style="fill:#A0D8BF;" cx="98.969" cy="283.306" rx="8.724" ry="8.724"/>
		<path style="fill:#FFFFFF;" d="M416.438,218.238c0-3.298-2.674-5.972-5.972-5.972c-3.298,0-5.972,2.674-5.972,5.972
			c0,3.298,2.674,5.972,5.972,5.972C413.764,224.21,416.438,221.537,416.438,218.238z"/>
		<path style="fill:#FFFFFF;" d="M137.654,159.721c0-3.298-2.674-5.972-5.972-5.972c-3.298,0-5.972,2.674-5.972,5.972
			c0,3.298,2.674,5.972,5.972,5.972C134.981,165.693,137.654,163.019,137.654,159.721z"/>
	</g>
</g>
</svg>
